<svg width="138" height="34" viewBox="0 0 138 34" fill="none" xmlns="http://www.w3.org/2000/svg">
<g clip-path="url(#clip0_39_143)">
<path d="M41.4149 24.3349H51.0681V21.4003H44.8459V10.3464H41.4149V24.3349Z" fill="#D3C9C1"/>
<path d="M56.7868 22.3786C55.4105 22.3786 54.6933 21.1656 54.6933 19.3461C54.6933 17.5266 55.4105 16.2941 56.7868 16.2941C58.1631 16.2941 58.8996 17.5266 58.8996 19.3461C58.8996 21.1656 58.1631 22.3786 56.7868 22.3786ZM56.8062 24.648C60.0045 24.648 62.098 22.359 62.098 19.3461C62.098 16.3332 60.0045 14.0442 56.8062 14.0442C53.6272 14.0442 51.495 16.3332 51.495 19.3461C51.495 22.359 53.6272 24.648 56.8062 24.648Z" fill="#D3C9C1"/>
<path d="M67.6352 27.7979C69.1084 27.7979 70.4071 27.4653 71.2794 26.6828C72.0742 25.9589 72.5975 24.8633 72.5975 23.3568V14.3181H69.5736V15.3942H69.5349C68.9534 14.5529 68.0617 14.0247 66.7436 14.0247C64.2818 14.0247 62.576 16.0985 62.576 19.0331C62.576 22.1047 64.6501 23.7872 66.8793 23.7872C68.0811 23.7872 68.8371 23.2981 69.4186 22.633H69.4961V23.6307C69.4961 24.8437 68.934 25.548 67.5965 25.548C66.5498 25.548 66.0264 25.0981 65.8519 24.5698H62.7893C63.0994 26.6632 64.9021 27.7979 67.6352 27.7979ZM67.6159 21.42C66.4335 21.42 65.6581 20.4418 65.6581 18.9353C65.6581 17.4093 66.4335 16.4311 67.6159 16.4311C68.934 16.4311 69.6318 17.5658 69.6318 18.9157C69.6318 20.3244 68.9921 21.42 67.6159 21.42Z" fill="#D3C9C1"/>
<path d="M78.8157 22.3786C77.4394 22.3786 76.7222 21.1656 76.7222 19.3461C76.7222 17.5266 77.4394 16.2941 78.8157 16.2941C80.1919 16.2941 80.9282 17.5266 80.9282 19.3461C80.9282 21.1656 80.1919 22.3786 78.8157 22.3786ZM78.8351 24.648C82.0331 24.648 84.1265 22.359 84.1265 19.3461C84.1265 16.3332 82.0331 14.0442 78.8351 14.0442C75.6561 14.0442 73.5239 16.3332 73.5239 19.3461C73.5239 22.359 75.6561 24.648 78.8351 24.648Z" fill="#D3C9C1"/>
<path d="M85.0471 24.3349H88.2066V14.318H85.0471V24.3349ZM85.0471 12.9289H88.2066V10.3464H85.0471V12.9289Z" fill="#D3C9C1"/>
<path d="M89.5787 27.6413H92.7382V23.298H92.777C93.3973 24.1393 94.3083 24.648 95.5877 24.648C98.1851 24.648 99.9103 22.5741 99.9103 19.3265C99.9103 16.3136 98.3014 14.0245 95.6652 14.0245C94.3083 14.0245 93.3391 14.631 92.6607 15.531H92.6026V14.318H89.5787V27.6413ZM94.7736 22.1829C93.4167 22.1829 92.6413 21.0677 92.6413 19.4438C92.6413 17.82 93.3392 16.5875 94.7154 16.5875C96.0723 16.5875 96.7119 17.7222 96.7119 19.4438C96.7119 21.1459 95.9754 22.1829 94.7736 22.1829Z" fill="#D3C9C1"/>
<path d="M105.054 24.648C107.651 24.648 109.57 23.5132 109.57 21.322C109.57 18.7591 107.516 18.3091 105.771 18.0157C104.511 17.7809 103.387 17.6831 103.387 16.9787C103.387 16.3527 103.988 16.0592 104.763 16.0592C105.635 16.0592 106.236 16.3331 106.353 17.2331H109.26C109.105 15.2571 107.593 14.0245 104.782 14.0245C102.437 14.0245 100.499 15.1201 100.499 17.2331C100.499 19.5808 102.34 20.0503 104.065 20.3438C105.383 20.5786 106.585 20.6764 106.585 21.5764C106.585 22.222 105.984 22.5741 105.034 22.5741C103.988 22.5741 103.329 22.085 103.212 21.0872H100.227C100.324 23.298 102.146 24.648 105.054 24.648Z" fill="#D3C9C1"/>
<path d="M113.864 24.6284C115.241 24.6284 116.113 24.0806 116.83 23.1024H116.888V24.3349H119.912V14.318H116.753V19.9134C116.753 21.1068 116.093 21.9285 115.008 21.9285C114 21.9285 113.515 21.322 113.515 20.2264V14.318H110.375V20.8916C110.375 23.1219 111.577 24.6284 113.864 24.6284Z" fill="#D3C9C1"/>
<path d="M121.284 24.335H124.444V18.7201C124.444 17.5267 125.025 16.6854 126.014 16.6854C126.964 16.6854 127.409 17.3115 127.409 18.3875V24.335H130.569V18.7201C130.569 17.5267 131.131 16.6854 132.139 16.6854C133.089 16.6854 133.535 17.3115 133.535 18.3875V24.335H136.694V17.8201C136.694 15.5702 135.57 14.0247 133.321 14.0247C132.042 14.0247 130.976 14.5725 130.201 15.7854H130.162C129.658 14.7094 128.669 14.0247 127.371 14.0247C125.936 14.0247 124.986 14.7094 124.366 15.7463H124.308V14.3181H121.284V24.335Z" fill="#D3C9C1"/>
<path fill-rule="evenodd" clip-rule="evenodd" d="M16.2345 33.302C25.1557 33.302 32.3877 26.0026 32.3877 16.9984C32.3877 7.99418 25.1557 0.694824 16.2345 0.694824C7.31328 0.694824 0.0812378 7.99418 0.0812378 16.9984C0.0812378 26.0026 7.31328 33.302 16.2345 33.302ZM18.7277 13.2914C20.1046 11.9016 20.1046 9.6484 18.7277 8.2586C17.3507 6.86881 15.1183 6.86881 13.7413 8.2586C12.3644 9.6484 12.3644 11.9016 13.7413 13.2914L16.2345 15.8078L18.7277 13.2914ZM19.9073 19.5148C21.2843 20.9046 23.5167 20.9046 24.8937 19.5148C26.2706 18.125 26.2706 15.8718 24.8937 14.482C23.5167 13.0923 21.2843 13.0923 19.9073 14.482L17.4141 16.9985L19.9073 19.5148ZM18.7277 25.7382C20.1046 24.3484 20.1046 22.0952 18.7277 20.7054L16.2345 18.189L13.7413 20.7054C12.3644 22.0952 12.3644 24.3484 13.7413 25.7382C15.1183 27.128 17.3507 27.128 18.7277 25.7382ZM7.57524 19.5148C6.1983 18.125 6.1983 15.8718 7.57524 14.482C8.95225 13.0923 11.1847 13.0923 12.5617 14.482L15.0549 16.9985L12.5617 19.5148C11.1847 20.9046 8.95225 20.9046 7.57524 19.5148Z" fill="#D3C9C1"/>
</g>
<defs>
<clipPath id="clip0_39_143">
<rect width="137.303" height="33.4224" fill="white" transform="translate(0 0.431274)"/>
</clipPath>
</defs>
</svg>
