<svg width="151" height="30" viewBox="0 0 151 30" fill="none" xmlns="http://www.w3.org/2000/svg">
<g clip-path="url(#clip0_39_129)">
<path d="M45.6396 22.584V7.87097H48.5181V20.0618H55.4963V22.584H45.6396Z" fill="#D3C9C1"/>
<path d="M61.712 22.8783C60.6362 22.8783 59.6694 22.6681 58.8117 22.2477C57.9539 21.8273 57.2779 21.2178 56.7836 20.4191C56.2894 19.6204 56.0422 18.6605 56.0422 17.5395V17.2032C56.0422 16.0822 56.2894 15.1224 56.7836 14.3237C57.2779 13.525 57.9539 12.9154 58.8117 12.495C59.6694 12.0747 60.6362 11.8645 61.712 11.8645C62.7878 11.8645 63.7546 12.0747 64.6123 12.495C65.47 12.9154 66.146 13.525 66.6404 14.3237C67.1346 15.1224 67.3818 16.0822 67.3818 17.2032V17.5395C67.3818 18.6605 67.1346 19.6204 66.6404 20.4191C66.146 21.2178 65.47 21.8273 64.6123 22.2477C63.7546 22.6681 62.7878 22.8783 61.712 22.8783ZM61.712 20.5241C62.5552 20.5241 63.253 20.2649 63.8055 19.7465C64.3578 19.214 64.6341 18.4573 64.6341 17.4765V17.2663C64.6341 16.2854 64.3578 15.5357 63.8055 15.0172C63.2675 14.4848 62.5697 14.2185 61.712 14.2185C60.8688 14.2185 60.171 14.4848 59.6185 15.0172C59.0661 15.5357 58.7899 16.2854 58.7899 17.2663V17.4765C58.7899 18.4573 59.0661 19.214 59.6185 19.7465C60.171 20.2649 60.8688 20.5241 61.712 20.5241Z" fill="#D3C9C1"/>
<path d="M68.4133 17.4134V17.0771C68.4133 15.9841 68.6386 15.0523 69.0893 14.2816C69.54 13.497 70.1361 12.9014 70.8775 12.495C71.6335 12.0747 72.4548 11.8645 73.3417 11.8645C74.3302 11.8645 75.0789 12.0326 75.5877 12.3689C76.0966 12.7052 76.4673 13.0555 76.6999 13.4198H77.0925V12.1587H79.7965V24.4336C79.7965 25.1483 79.5784 25.7157 79.1423 26.1361C78.7061 26.5705 78.1247 26.7877 77.3977 26.7877H70.1579V24.4757H76.4382C76.8453 24.4757 77.0488 24.2655 77.0488 23.8451V21.1337H76.6563C76.5109 21.3579 76.3074 21.5891 76.0457 21.8273C75.7841 22.0515 75.4352 22.2407 74.999 22.3948C74.5628 22.5489 74.0105 22.626 73.3417 22.626C72.4548 22.626 71.6335 22.4228 70.8775 22.0165C70.1361 21.5961 69.54 21.0005 69.0893 20.2298C68.6386 19.4452 68.4133 18.5063 68.4133 17.4134ZM74.1268 20.3139C74.9699 20.3139 75.675 20.0547 76.242 19.5363C76.809 19.0178 77.0925 18.2892 77.0925 17.3504V17.1402C77.0925 16.1873 76.809 15.4587 76.242 14.9542C75.6895 14.4358 74.9845 14.1765 74.1268 14.1765C73.2835 14.1765 72.5784 14.4358 72.0115 14.9542C71.4445 15.4587 71.161 16.1873 71.161 17.1402V17.3504C71.161 18.2892 71.4445 19.0178 72.0115 19.5363C72.5784 20.0547 73.2835 20.3139 74.1268 20.3139Z" fill="#D3C9C1"/>
<path d="M87.0074 22.8783C85.9316 22.8783 84.9648 22.6681 84.107 22.2477C83.2493 21.8273 82.5733 21.2178 82.079 20.4191C81.5848 19.6204 81.3375 18.6605 81.3375 17.5395V17.2032C81.3375 16.0822 81.5848 15.1224 82.079 14.3237C82.5733 13.525 83.2493 12.9154 84.107 12.495C84.9648 12.0747 85.9316 11.8645 87.0074 11.8645C88.0832 11.8645 89.0499 12.0747 89.9077 12.495C90.7654 12.9154 91.4414 13.525 91.9357 14.3237C92.43 15.1224 92.6771 16.0822 92.6771 17.2032V17.5395C92.6771 18.6605 92.43 19.6204 91.9357 20.4191C91.4414 21.2178 90.7654 21.8273 89.9077 22.2477C89.0499 22.6681 88.0832 22.8783 87.0074 22.8783ZM87.0074 20.5241C87.8506 20.5241 88.5484 20.2649 89.1008 19.7465C89.6532 19.214 89.9294 18.4573 89.9294 17.4765V17.2663C89.9294 16.2854 89.6532 15.5357 89.1008 15.0172C88.5629 14.4848 87.8651 14.2185 87.0074 14.2185C86.1641 14.2185 85.4664 14.4848 84.9139 15.0172C84.3614 15.5357 84.0852 16.2854 84.0852 17.2663V17.4765C84.0852 18.4573 84.3614 19.214 84.9139 19.7465C85.4664 20.2649 86.1641 20.5241 87.0074 20.5241Z" fill="#D3C9C1"/>
<path d="M94.2326 22.5839V12.1587H96.9805V22.5839H94.2326ZM95.6066 10.9397C95.1118 10.9397 94.691 10.7855 94.3414 10.4772C94.0073 10.169 93.8401 9.76258 93.8401 9.25815C93.8401 8.75371 94.0073 8.34734 94.3414 8.03907C94.691 7.7308 95.1118 7.57666 95.6066 7.57666C96.1155 7.57666 96.5372 7.7308 96.8708 8.03907C97.2054 8.34734 97.3732 8.75371 97.3732 9.25815C97.3732 9.76258 97.2054 10.169 96.8708 10.4772C96.5372 10.7855 96.1155 10.9397 95.6066 10.9397Z" fill="#D3C9C1"/>
<path d="M99.0443 26.7877V12.1587H101.748V13.4198H102.141C102.387 13.0135 102.772 12.6562 103.296 12.3479C103.819 12.0257 104.568 11.8645 105.543 11.8645C106.414 11.8645 107.221 12.0747 107.963 12.495C108.705 12.9014 109.301 13.5039 109.751 14.3026C110.201 15.1013 110.427 16.0682 110.427 17.2032V17.5395C110.427 18.6745 110.201 19.6413 109.751 20.44C109.301 21.2388 108.705 21.8483 107.963 22.2687C107.221 22.675 106.414 22.8783 105.543 22.8783C104.889 22.8783 104.336 22.8012 103.885 22.647C103.449 22.5069 103.093 22.3247 102.816 22.1005C102.555 21.8623 102.344 21.6241 102.184 21.3859H101.791V26.7877H99.0443ZM104.713 20.5661C105.572 20.5661 106.277 20.307 106.829 19.7885C107.396 19.256 107.679 18.4854 107.679 17.4765V17.2663C107.679 16.2574 107.396 15.4937 106.829 14.9752C106.262 14.4427 105.557 14.1765 104.713 14.1765C103.871 14.1765 103.165 14.4427 102.598 14.9752C102.031 15.4937 101.748 16.2574 101.748 17.2663V17.4765C101.748 18.4854 102.031 19.256 102.598 19.7885C103.165 20.307 103.871 20.5661 104.713 20.5661Z" fill="#D3C9C1"/>
<path d="M116.46 22.8783C115.049 22.8783 113.894 22.584 112.992 21.9955C112.091 21.4069 111.546 20.5661 111.357 19.4732L113.886 18.8426C113.988 19.3331 114.155 19.7184 114.388 19.9987C114.635 20.2789 114.933 20.4821 115.282 20.6082C115.645 20.7203 116.038 20.7763 116.46 20.7763C117.1 20.7763 117.572 20.6713 117.877 20.4611C118.182 20.2369 118.335 19.9636 118.335 19.6413C118.335 19.319 118.19 19.0739 117.899 18.9057C117.608 18.7236 117.143 18.5764 116.504 18.4643L115.893 18.3592C115.136 18.2191 114.446 18.0299 113.821 17.7917C113.195 17.5395 112.694 17.1962 112.316 16.7618C111.939 16.3275 111.749 15.767 111.749 15.0804C111.749 14.0434 112.142 13.2517 112.927 12.7052C113.712 12.1447 114.744 11.8645 116.024 11.8645C117.23 11.8645 118.234 12.1237 119.033 12.6422C119.832 13.1607 120.355 13.8402 120.603 14.681L118.052 15.4376C117.936 14.9052 117.696 14.5268 117.332 14.3026C116.982 14.0784 116.547 13.9663 116.024 13.9663C115.5 13.9663 115.101 14.0575 114.824 14.2396C114.548 14.4078 114.41 14.646 114.41 14.9542C114.41 15.2905 114.555 15.5428 114.846 15.7109C115.136 15.865 115.529 15.9841 116.024 16.0682L116.634 16.1733C117.448 16.3134 118.182 16.5026 118.836 16.7408C119.505 16.965 120.028 17.2943 120.407 17.7287C120.799 18.1491 120.995 18.7236 120.995 19.4522C120.995 20.5452 120.581 21.3929 119.753 21.9955C118.938 22.584 117.841 22.8783 116.46 22.8783Z" fill="#D3C9C1"/>
<path d="M126.545 22.7521C125.701 22.7521 124.96 22.5699 124.32 22.2056C123.695 21.8273 123.208 21.3088 122.859 20.6502C122.51 19.9916 122.336 19.235 122.336 18.3802V12.1587H125.084V18.17C125.084 18.9547 125.28 19.5432 125.672 19.9356C126.079 20.3279 126.654 20.5241 127.395 20.5241C128.238 20.5241 128.892 20.2579 129.357 19.7254C129.823 19.1789 130.055 18.4222 130.055 17.4554V12.1587H132.803V22.5839H130.099V21.2178H129.707C129.533 21.5681 129.205 21.9113 128.726 22.2476C128.246 22.5839 127.519 22.7521 126.545 22.7521Z" fill="#D3C9C1"/>
<path d="M134.88 22.5838V12.1586H137.584V13.2936H137.976C138.166 12.9433 138.479 12.642 138.914 12.3898C139.35 12.1235 139.925 11.9905 140.637 11.9905C141.407 11.9905 142.026 12.1376 142.491 12.4318C142.956 12.7121 143.312 13.0834 143.559 13.5459H143.952C144.199 13.0975 144.548 12.7261 144.999 12.4318C145.449 12.1376 146.089 11.9905 146.917 11.9905C147.586 11.9905 148.19 12.1306 148.728 12.4109C149.28 12.6771 149.716 13.0904 150.036 13.6509C150.371 14.1974 150.537 14.891 150.537 15.7318V22.5838H147.79V15.9209C147.79 15.3464 147.637 14.9191 147.332 14.6388C147.027 14.3446 146.597 14.1974 146.045 14.1974C145.42 14.1974 144.933 14.3935 144.584 14.7859C144.25 15.1642 144.083 15.7107 144.083 16.4254V22.5838H141.335V15.9209C141.335 15.3464 141.182 14.9191 140.877 14.6388C140.571 14.3446 140.143 14.1974 139.59 14.1974C138.965 14.1974 138.478 14.3935 138.129 14.7859C137.795 15.1642 137.628 15.7107 137.628 16.4254V22.5838H134.88Z" fill="#D3C9C1"/>
<path d="M36.9331 14.7022C36.9331 10.9858 35.4014 7.42157 32.6749 4.79368C29.9485 2.16579 26.2506 0.689454 22.3949 0.689453C18.5391 0.689453 14.8413 2.16579 12.1148 4.79368C9.38839 7.42157 7.85669 10.9858 7.85669 14.7022H12.3999C13.9054 14.7022 15.0795 13.4862 15.631 12.1359C15.993 11.2494 16.5424 10.4347 17.2548 9.74791C18.618 8.43397 20.467 7.69581 22.3949 7.69581C24.3228 7.69581 26.1717 8.43397 27.5349 9.74791C28.8982 11.0619 29.6639 12.844 29.6639 14.7022H36.9331Z" fill="#D3C9C1"/>
<path d="M28.5587 20.0645C29.2893 18.3644 29.6654 16.5423 29.6654 14.7021H36.9337C36.9337 22.4411 30.4247 28.7148 22.3955 28.7148C21.1381 28.7148 19.9179 28.561 18.7543 28.2717C19.4126 28.1082 20.0598 27.9 20.6907 27.6482C22.4545 26.9439 24.0572 25.9118 25.4072 24.6106C26.7572 23.3094 27.8282 21.7647 28.5587 20.0645Z" fill="#D3C9C1"/>
<path d="M0.587646 14.7021C0.587646 16.5424 0.963688 18.3645 1.6943 20.0646C2.42491 21.7647 3.49578 23.3095 4.84578 24.6107C6.19578 25.9118 7.79846 26.944 9.56231 27.6483C11.3261 28.3525 13.2166 28.7149 15.1259 28.7149C17.035 28.7149 18.9255 28.3525 20.6893 27.6483C22.4532 26.944 24.0559 25.9118 25.4059 24.6107C26.7559 23.3095 27.8267 21.7647 28.5573 20.0646C29.288 18.3645 29.6641 16.5424 29.6641 14.7021H25.1208C23.6153 14.7021 22.4412 15.9182 21.8898 17.2684C21.8741 17.3068 21.858 17.3451 21.8416 17.3834C21.4763 18.2334 20.9409 19.0059 20.2658 19.6564C19.5909 20.307 18.7895 20.8231 17.9076 21.1752C17.0257 21.5274 16.0805 21.7086 15.1259 21.7086C14.1712 21.7086 13.226 21.5274 12.3441 21.1752C11.4621 20.8231 10.6608 20.307 9.98579 19.6564C9.31081 19.0059 8.77537 18.2334 8.41007 17.3834C8.04476 16.5333 7.85674 15.6223 7.85674 14.7021H0.587646Z" fill="#A3A3A3"/>
<path d="M0.590576 14.7022C0.590576 6.96314 7.09953 0.689453 15.1287 0.689453C16.3858 0.689453 17.6057 0.843238 18.7692 1.13237C16.2726 1.75226 13.9696 3.00675 12.1156 4.79369C9.38914 7.42156 7.85746 10.9858 7.85746 14.7022H0.590576Z" fill="#A3A3A3"/>
</g>
<defs>
<clipPath id="clip0_39_129">
<rect width="149.949" height="28.9058" fill="white" transform="translate(0.587646 0.689453)"/>
</clipPath>
</defs>
</svg>
