<svg width="161" height="30" viewBox="0 0 161 30" fill="none" xmlns="http://www.w3.org/2000/svg">
<g clip-path="url(#clip0_39_165)">
<path d="M11.0719 24.5796C7.99166 27.5561 2.77481 27.5443 1.31789 23.5773C1.03265 22.8006 0.804582 22.002 0.636841 21.1872C-0.0480382 17.86 0.303467 14.4114 1.64691 11.2774C2.99035 8.14337 5.26538 5.46465 8.18432 3.58002C11.1033 1.69538 14.5351 0.689453 18.0456 0.689453C21.5562 0.689453 24.988 1.69538 27.9068 3.58002C30.8258 5.46465 33.1008 8.14337 34.4443 11.2775C35.7877 14.4114 36.1392 17.86 35.4544 21.1872C35.2866 22.002 35.0586 22.8006 34.7732 23.5773C33.3163 27.5443 28.0995 27.5561 25.0192 24.5796L20.2643 19.985C19.81 19.546 19.857 18.8221 19.9823 18.2133C20.0584 17.8432 20.0193 17.4595 19.8699 17.1108C19.7204 16.7622 19.4674 16.4642 19.1426 16.2545C18.8179 16.0449 18.4362 15.933 18.0456 15.933C17.6551 15.933 17.2733 16.0449 16.9486 16.2545C16.6238 16.4642 16.3708 16.7622 16.2213 17.1108C16.0718 17.4595 16.0327 17.8432 16.109 18.2133C16.2343 18.8221 16.2811 19.546 15.8268 19.985L11.0719 24.5796Z" fill="#D3C9C1"/>
<path d="M50.2349 20.4614H55.006V23.1782H46.5927V8.72974H50.2349V20.4614Z" fill="#D3C9C1"/>
<path d="M61.5158 23.3433C60.3514 23.3433 59.3006 23.1032 58.3634 22.623C57.4405 22.1427 56.7091 21.4567 56.1695 20.5648C55.6442 19.6729 55.3815 18.6301 55.3815 17.4363C55.3815 16.2563 55.6512 15.2203 56.1908 14.3284C56.7305 13.4228 57.4688 12.7299 58.406 12.2496C59.3432 11.7694 60.394 11.5293 61.5584 11.5293C62.7228 11.5293 63.7736 11.7694 64.7107 12.2496C65.648 12.7299 66.3863 13.4228 66.9259 14.3284C67.4655 15.2203 67.7353 16.2563 67.7353 17.4363C67.7353 18.6163 67.4584 19.6591 66.9047 20.5648C66.3651 21.4567 65.6196 22.1427 64.6681 22.623C63.731 23.1032 62.6802 23.3433 61.5158 23.3433ZM61.5158 20.2971C62.2116 20.2971 62.8009 20.0502 63.2837 19.5562C63.7807 19.0623 64.0292 18.3557 64.0292 17.4363C64.0292 16.5169 63.7877 15.8103 63.305 15.3164C62.8364 14.8224 62.2542 14.5754 61.5584 14.5754C60.8484 14.5754 60.2591 14.8224 59.7905 15.3164C59.3219 15.7966 59.0876 16.5032 59.0876 17.4363C59.0876 18.3557 59.3149 19.0623 59.7692 19.5562C60.2379 20.0502 60.82 20.2971 61.5158 20.2971Z" fill="#D3C9C1"/>
<path d="M73.5433 11.5293C74.3811 11.5293 75.1124 11.694 75.7372 12.0233C76.3761 12.3525 76.8661 12.7848 77.2069 13.3199V11.694H80.8491V23.158C80.8491 24.2146 80.6291 25.1683 80.1888 26.0189C79.7628 26.8834 79.1026 27.5694 78.208 28.0771C77.3276 28.5848 76.2271 28.8387 74.9065 28.8387C73.1457 28.8387 71.7186 28.4339 70.6252 27.6244C69.5319 26.8284 68.907 25.7445 68.7508 24.3724H72.3505C72.4641 24.8114 72.734 25.1545 73.16 25.4015C73.5859 25.6621 74.1113 25.7925 74.7361 25.7925C75.4887 25.7925 76.085 25.5798 76.5253 25.1545C76.9797 24.7428 77.2069 24.0774 77.2069 23.158V21.5321C76.8519 22.0672 76.362 22.5063 75.7372 22.8493C75.1124 23.1786 74.3811 23.3433 73.5433 23.3433C72.5636 23.3433 71.676 23.1032 70.8808 22.623C70.0856 22.129 69.4537 21.436 68.9852 20.5441C68.5308 19.6386 68.3036 18.5958 68.3036 17.4157C68.3036 16.2357 68.5308 15.1997 68.9852 14.3078C69.4537 13.4159 70.0856 12.7299 70.8808 12.2496C71.676 11.7694 72.5636 11.5293 73.5433 11.5293ZM77.2069 17.4363C77.2069 16.5581 76.9513 15.8652 76.4401 15.3575C75.9431 14.8499 75.3325 14.596 74.6083 14.596C73.8841 14.596 73.2664 14.8499 72.7552 15.3575C72.2582 15.8515 72.0097 16.5376 72.0097 17.4157C72.0097 18.2939 72.2582 18.9937 72.7552 19.5151C73.2664 20.0227 73.8841 20.2766 74.6083 20.2766C75.3325 20.2766 75.9431 20.0227 76.4401 19.5151C76.9513 19.0073 77.2069 18.3145 77.2069 17.4363Z" fill="#D3C9C1"/>
<path d="M88.2562 23.3433C87.0918 23.3433 86.041 23.1032 85.1038 22.623C84.1808 22.1427 83.4495 21.4567 82.9099 20.5648C82.3846 19.6729 82.1218 18.6301 82.1218 17.4363C82.1218 16.2563 82.3916 15.2203 82.9313 14.3284C83.4708 13.4228 84.2092 12.7299 85.1463 12.2496C86.0836 11.7694 87.1344 11.5293 88.2988 11.5293C89.4631 11.5293 90.514 11.7694 91.4511 12.2496C92.3883 12.7299 93.1267 13.4228 93.6663 14.3284C94.2059 15.2203 94.4757 16.2563 94.4757 17.4363C94.4757 18.6163 94.1988 19.6591 93.645 20.5648C93.1054 21.4567 92.36 22.1427 91.4085 22.623C90.4713 23.1032 89.4205 23.3433 88.2562 23.3433ZM88.2562 20.2971C88.9519 20.2971 89.5412 20.0502 90.0241 19.5562C90.5211 19.0623 90.7696 18.3557 90.7696 17.4363C90.7696 16.5169 90.5281 15.8103 90.0453 15.3164C89.5767 14.8224 88.9945 14.5754 88.2988 14.5754C87.5888 14.5754 86.9995 14.8224 86.5308 15.3164C86.0623 15.7966 85.828 16.5032 85.828 17.4363C85.828 18.3557 86.0552 19.0623 86.5096 19.5562C86.9782 20.0502 87.5604 20.2971 88.2562 20.2971Z" fill="#D3C9C1"/>
<path d="M97.6003 10.5003C96.9613 10.5003 96.4359 10.3219 96.0242 9.96515C95.6265 9.59468 95.4277 9.14188 95.4277 8.60675C95.4277 8.0579 95.6265 7.60509 96.0242 7.24834C96.4359 6.87786 96.9613 6.69263 97.6003 6.69263C98.2251 6.69263 98.7363 6.87786 99.1339 7.24834C99.5457 7.60509 99.7515 8.0579 99.7515 8.60675C99.7515 9.14188 99.5457 9.59468 99.1339 9.96515C98.7363 10.3219 98.2251 10.5003 97.6003 10.5003ZM99.4107 11.6941V23.1787H95.7685V11.6941H99.4107Z" fill="#D3C9C1"/>
<path d="M105.054 13.3199C105.409 12.7848 105.899 12.3525 106.524 12.0233C107.149 11.694 107.88 11.5293 108.718 11.5293C109.698 11.5293 110.585 11.7694 111.38 12.2497C112.175 12.7299 112.8 13.4159 113.254 14.3078C113.723 15.1997 113.958 16.2357 113.958 17.4157C113.958 18.5958 113.723 19.6386 113.254 20.5441C112.8 21.436 112.175 22.129 111.38 22.623C110.585 23.1032 109.698 23.3433 108.718 23.3433C107.893 23.3433 107.163 23.1786 106.524 22.8493C105.899 22.52 105.409 22.0947 105.054 21.5733V28.6534H101.412V11.694H105.054V13.3199ZM110.252 17.4157C110.252 16.5376 109.996 15.8515 109.484 15.3575C108.987 14.8499 108.37 14.596 107.631 14.596C106.907 14.596 106.289 14.8499 105.778 15.3575C105.282 15.8652 105.033 16.5581 105.033 17.4363C105.033 18.3145 105.282 19.0073 105.778 19.5151C106.289 20.0227 106.907 20.2766 107.631 20.2766C108.356 20.2766 108.973 20.0227 109.484 19.5151C109.996 18.9937 110.252 18.2939 110.252 17.4157Z" fill="#D3C9C1"/>
<path d="M120.063 23.3433C119.026 23.3433 118.103 23.1718 117.294 22.8288C116.485 22.4857 115.845 22.0192 115.377 21.4291C114.909 20.8254 114.646 20.1531 114.589 19.4121H118.189C118.231 19.81 118.423 20.1325 118.763 20.3795C119.105 20.6265 119.524 20.75 120.021 20.75C120.475 20.75 120.822 20.6676 121.064 20.503C121.32 20.3246 121.447 20.0982 121.447 19.8238C121.447 19.4944 121.27 19.2543 120.915 19.1034C120.56 18.9388 119.985 18.7604 119.189 18.5683C118.337 18.3762 117.628 18.1772 117.059 17.9714C116.492 17.7519 116.002 17.4157 115.59 16.9629C115.178 16.4964 114.973 15.872 114.973 15.09C114.973 14.4313 115.157 13.8345 115.527 13.2993C115.909 12.7505 116.463 12.3182 117.187 12.0027C117.926 11.6871 118.8 11.5293 119.807 11.5293C121.298 11.5293 122.47 11.886 123.322 12.5995C124.188 13.3131 124.685 14.2598 124.813 15.4399H121.447C121.391 15.042 121.206 14.7264 120.894 14.493C120.595 14.2598 120.198 14.1432 119.701 14.1432C119.275 14.1432 118.948 14.2255 118.721 14.3902C118.494 14.5411 118.381 14.7538 118.381 15.0282C118.381 15.3575 118.558 15.6045 118.913 15.7692C119.282 15.9338 119.85 16.0985 120.617 16.2631C121.497 16.4827 122.214 16.7022 122.768 16.9217C123.322 17.1276 123.804 17.4705 124.216 17.9509C124.642 18.4174 124.863 19.0485 124.877 19.8444C124.877 20.5167 124.678 21.1204 124.28 21.6556C123.897 22.177 123.336 22.5887 122.598 22.8905C121.873 23.1924 121.029 23.3433 120.063 23.3433Z" fill="#D3C9C1"/>
<path d="M138.204 11.6938V23.1785H134.561V21.6143C134.192 22.122 133.688 22.5336 133.049 22.8492C132.424 23.1511 131.729 23.302 130.961 23.302C130.053 23.302 129.25 23.11 128.555 22.7257C127.858 22.3278 127.319 21.7584 126.936 21.0175C126.553 20.2765 126.361 19.4052 126.361 18.4035V11.6938H129.981V17.9301C129.981 18.6985 130.188 19.2954 130.599 19.7208C131.011 20.1461 131.565 20.3588 132.261 20.3588C132.971 20.3588 133.532 20.1461 133.943 19.7208C134.355 19.2954 134.561 18.6985 134.561 17.9301V11.6938H138.204Z" fill="#D3C9C1"/>
<path d="M155.347 11.5704C156.823 11.5704 157.995 12.0026 158.862 12.8671C159.741 13.7315 160.182 14.9321 160.182 16.4689V23.1786H156.561V16.9423C156.561 16.2013 156.355 15.6319 155.943 15.234C155.545 14.8223 154.992 14.6165 154.282 14.6165C153.572 14.6165 153.011 14.8223 152.599 15.234C152.202 15.6319 152.003 16.2013 152.003 16.9423V23.1786H148.381V16.9423C148.381 16.2013 148.176 15.6319 147.764 15.234C147.366 14.8223 146.812 14.6165 146.103 14.6165C145.393 14.6165 144.832 14.8223 144.42 15.234C144.022 15.6319 143.824 16.2013 143.824 16.9423V23.1786H140.182V11.6939H143.824V13.1346C144.193 12.6544 144.676 12.277 145.272 12.0026C145.869 11.7145 146.543 11.5704 147.295 11.5704C148.19 11.5704 148.986 11.7556 149.681 12.1261C150.391 12.4966 150.945 13.0249 151.343 13.711C151.754 13.0797 152.316 12.5652 153.025 12.1673C153.735 11.7694 154.51 11.5704 155.347 11.5704Z" fill="#D3C9C1"/>
</g>
<defs>
<clipPath id="clip0_39_165">
<rect width="159.885" height="28.9058" fill="white" transform="translate(0.295776 0.689453)"/>
</clipPath>
</defs>
</svg>
