<svg width="148" height="30" viewBox="0 0 148 30" fill="none" xmlns="http://www.w3.org/2000/svg">
<path d="M42.6707 20.725C42.6707 21.453 42.5202 22.0124 42.2194 22.4032C41.9264 22.7941 41.4367 22.9895 40.7502 22.9895C40.1023 22.9895 39.6434 22.7941 39.3734 22.4032C39.1112 22.0124 38.9801 21.453 38.9801 20.725V8.57524C38.9801 7.84724 39.1112 7.28784 39.3734 6.89702C39.6434 6.5062 40.1023 6.31079 40.7502 6.31079C41.4367 6.31079 41.9264 6.5062 42.2194 6.89702C42.5202 7.28784 42.6707 7.84724 42.6707 8.57524V20.725Z" fill="#D3C9C1"/>
<path d="M43.7904 17.1967C43.7904 16.3844 43.9215 15.6181 44.1838 14.8978C44.4537 14.1698 44.8548 13.5338 45.387 12.9897C45.9269 12.4456 46.5979 12.0126 47.4001 11.6908C48.2099 11.3689 49.1585 11.208 50.2461 11.208C51.2873 11.208 52.209 11.3574 53.0111 11.6563C53.8133 11.9551 54.4882 12.3728 55.0357 12.9092C55.5833 13.4379 55.9998 14.0701 56.2852 14.8058C56.5706 15.5338 56.7133 16.3307 56.7133 17.1967C56.7133 18.0013 56.5783 18.7638 56.3083 19.4841C56.0384 20.1967 55.6335 20.8252 55.0935 21.3693C54.5537 21.9056 53.8788 22.3347 53.069 22.6567C52.2591 22.9708 51.3181 23.1279 50.2461 23.1279C49.1894 23.1279 48.2562 22.9785 47.4463 22.6796C46.6441 22.3731 45.9693 21.9554 45.4217 21.4266C44.8818 20.8903 44.473 20.262 44.1954 19.5416C43.9254 18.8136 43.7904 18.0319 43.7904 17.1967ZM47.643 17.1967C47.643 17.7025 47.6892 18.1853 47.7818 18.645C47.8743 19.0971 48.0209 19.4956 48.2214 19.8405C48.4297 20.1853 48.6997 20.4612 49.0313 20.668C49.363 20.8673 49.7679 20.9669 50.2461 20.9669C50.6857 20.9669 51.0675 20.875 51.3914 20.691C51.7231 20.5072 51.993 20.2504 52.2013 19.9209C52.4172 19.5914 52.5792 19.1967 52.6871 18.737C52.7951 18.2695 52.8491 17.7561 52.8491 17.1967C52.8491 16.6909 52.799 16.2119 52.6988 15.7598C52.6062 15.3001 52.4558 14.8978 52.2475 14.5529C52.0393 14.2005 51.7694 13.9245 51.4377 13.7253C51.1138 13.5185 50.7165 13.415 50.2461 13.415C49.7756 13.415 49.3745 13.5145 49.0428 13.7138C48.7112 13.9131 48.4413 14.1851 48.233 14.5299C48.0248 14.8748 47.8743 15.2771 47.7818 15.7369C47.6892 16.1966 47.643 16.6832 47.643 17.1967Z" fill="#D3C9C1"/>
<path d="M66.2113 20.7707C66.003 21.1538 65.7485 21.4794 65.4477 21.7477C65.1547 22.0159 64.8268 22.2381 64.4644 22.4144C64.1096 22.5829 63.7278 22.7093 63.319 22.7937C62.9179 22.8703 62.5053 22.9087 62.0811 22.9087C61.3715 22.9087 60.7237 22.7822 60.1374 22.5293C59.5513 22.2764 59.0462 21.9124 58.6219 21.4373C58.2054 20.9546 57.8815 20.3645 57.6501 19.6672C57.4187 18.9698 57.303 18.1728 57.303 17.2763C57.303 16.4333 57.411 15.644 57.627 14.9084C57.8429 14.1727 58.1553 13.5329 58.5641 12.9888C58.9806 12.4447 59.4896 12.0156 60.0912 11.7014C60.6928 11.3872 61.3793 11.2301 62.1505 11.2301C63.0298 11.2301 63.8088 11.3987 64.4875 11.7358C65.174 12.0731 65.764 12.6248 66.2576 13.3911V13.0923C66.2576 12.5405 66.408 12.1267 66.7088 11.8508C67.0173 11.5673 67.4415 11.4255 67.9815 11.4255C68.3054 11.4255 68.5791 11.4791 68.8028 11.5865C69.0265 11.6861 69.2039 11.8393 69.335 12.0463C69.4662 12.2455 69.5587 12.4945 69.6127 12.7934C69.6744 13.0845 69.7052 13.4179 69.7052 13.7934V21.4948C69.7052 22.4297 69.5857 23.2649 69.3466 24.0006C69.1152 24.7362 68.7527 25.357 68.2591 25.8628C67.7655 26.3685 67.133 26.7516 66.3617 27.0122C65.5905 27.2804 64.6726 27.4145 63.6083 27.4145C62.8602 27.4145 62.1968 27.3801 61.6183 27.311C61.0476 27.2498 60.554 27.154 60.1374 27.0237C59.721 26.878 59.4048 26.7172 59.1888 26.5409C58.9806 26.3647 58.8764 26.1347 58.8764 25.8513C58.8764 25.6903 58.8995 25.5371 58.9458 25.3914C58.9921 25.2459 59.0615 25.1156 59.1541 25.0007C59.2544 24.8934 59.3816 24.8053 59.5359 24.7362C59.6978 24.675 59.8945 24.6443 60.1259 24.6443C60.3727 24.6443 60.6195 24.6596 60.8663 24.6903C61.1208 24.7209 61.3831 24.7516 61.6531 24.7822C61.9307 24.8206 62.2199 24.855 62.5207 24.8857C62.8293 24.9163 63.1609 24.9317 63.5157 24.9317C63.9399 24.9317 64.3178 24.8895 64.6495 24.8053C64.9811 24.7209 65.2626 24.5715 65.494 24.3569C65.7254 24.1424 65.9028 23.855 66.0262 23.4948C66.1496 23.1423 66.2113 22.6902 66.2113 22.1385V20.7707ZM66.2113 17.1959C66.2113 16.6364 66.1689 16.1268 66.0841 15.6671C66.007 15.2072 65.8719 14.8165 65.6791 14.4945C65.4863 14.1651 65.228 13.9122 64.904 13.7359C64.58 13.552 64.1752 13.4601 63.6892 13.4601C63.211 13.4601 62.8139 13.5558 62.4976 13.7474C62.1891 13.939 61.9423 14.2034 61.7572 14.5405C61.5721 14.8778 61.441 15.2724 61.3638 15.7246C61.2944 16.1766 61.2597 16.6594 61.2597 17.1728C61.2597 18.3452 61.468 19.2266 61.8845 19.8166C62.3009 20.4066 62.9064 20.7017 63.7008 20.7017C64.071 20.694 64.4066 20.625 64.7073 20.4947C65.0158 20.3568 65.282 20.1461 65.5056 19.8626C65.7293 19.579 65.9028 19.2188 66.0262 18.782C66.1496 18.3452 66.2113 17.8166 66.2113 17.1959Z" fill="#D3C9C1"/>
<path d="M70.7666 17.1967C70.7666 16.3844 70.8977 15.6181 71.1599 14.8978C71.4299 14.1698 71.8309 13.5338 72.3632 12.9897C72.9031 12.4456 73.574 12.0126 74.3761 11.6908C75.1861 11.3689 76.1347 11.208 77.2223 11.208C78.2634 11.208 79.1851 11.3574 79.9872 11.6563C80.7894 11.9551 81.4642 12.3728 82.0119 12.9092C82.5595 13.4379 82.976 14.0701 83.2613 14.8058C83.5467 15.5338 83.6894 16.3307 83.6894 17.1967C83.6894 18.0013 83.5544 18.7638 83.2845 19.4841C83.0145 20.1967 82.6096 20.8252 82.0697 21.3693C81.5298 21.9056 80.8549 22.3347 80.0451 22.6567C79.2352 22.9708 78.2943 23.1279 77.2223 23.1279C76.1655 23.1279 75.2323 22.9785 74.4224 22.6796C73.6203 22.3731 72.9454 21.9554 72.3978 21.4266C71.858 20.8903 71.4492 20.262 71.1715 19.5416C70.9016 18.8136 70.7666 18.0319 70.7666 17.1967ZM74.6191 17.1967C74.6191 17.7025 74.6654 18.1853 74.758 18.645C74.8505 19.0971 74.997 19.4956 75.1976 19.8405C75.4058 20.1853 75.6757 20.4612 76.0075 20.668C76.3391 20.8673 76.744 20.9669 77.2223 20.9669C77.6619 20.9669 78.0436 20.875 78.3676 20.691C78.6992 20.5072 78.9692 20.2504 79.1774 19.9209C79.3934 19.5914 79.5553 19.1967 79.6633 18.737C79.7713 18.2695 79.8253 17.7561 79.8253 17.1967C79.8253 16.6909 79.7752 16.2119 79.6749 15.7598C79.5824 15.3001 79.4319 14.8978 79.2237 14.5529C79.0155 14.2005 78.7455 13.9245 78.4139 13.7253C78.0899 13.5185 77.6927 13.415 77.2223 13.415C76.7517 13.415 76.3506 13.5145 76.019 13.7138C75.6874 13.9131 75.4174 14.1851 75.2092 14.5299C75.001 14.8748 74.8505 15.2771 74.758 15.7369C74.6654 16.1966 74.6191 16.6832 74.6191 17.1967Z" fill="#D3C9C1"/>
<path d="M88.6505 7.33422C88.6505 7.58711 88.5926 7.81316 88.4769 8.0124C88.3612 8.20398 88.2108 8.36486 88.0257 8.49522C87.8406 8.62548 87.6246 8.72504 87.3778 8.79399C87.1388 8.8553 86.892 8.886 86.6374 8.886C86.3675 8.886 86.1091 8.85147 85.8623 8.78252C85.6232 8.71356 85.4111 8.614 85.226 8.48365C85.0409 8.34574 84.8943 8.18099 84.7863 7.98941C84.6784 7.79784 84.6244 7.57944 84.6244 7.33422C84.6244 7.11199 84.6745 6.90892 84.7748 6.72501C84.8828 6.53343 85.0254 6.36868 85.2028 6.23074C85.3802 6.09281 85.5924 5.98552 85.8392 5.90889C86.086 5.83226 86.3559 5.79395 86.649 5.79395C86.9035 5.79395 87.1503 5.82843 87.3895 5.8974C87.6363 5.96636 87.8522 6.06598 88.0373 6.19626C88.2224 6.32653 88.369 6.48745 88.4769 6.67903C88.5926 6.87061 88.6505 7.089 88.6505 7.33422ZM88.4769 20.7254C88.4769 21.4534 88.3265 22.0128 88.0257 22.4036C87.7326 22.7945 87.2429 22.9899 86.5564 22.9899C85.9086 22.9899 85.4496 22.7945 85.1797 22.4036C84.9175 22.0128 84.7863 21.4534 84.7863 20.7254V13.6907C84.7863 12.9627 84.9175 12.4033 85.1797 12.0125C85.4496 11.6218 85.9086 11.4263 86.5564 11.4263C87.2429 11.4263 87.7326 11.6218 88.0257 12.0125C88.3265 12.4033 88.4769 12.9627 88.4769 13.6907V20.7254Z" fill="#D3C9C1"/>
<path d="M93.7979 17.1728C93.7979 17.6863 93.8364 18.1652 93.9136 18.6097C93.9984 19.0541 94.1372 19.4449 94.33 19.7821C94.5306 20.1116 94.7928 20.3721 95.1167 20.5637C95.4483 20.7554 95.8571 20.8511 96.3431 20.8511C96.7904 20.8511 97.1644 20.7592 97.4656 20.5753C97.7736 20.3837 98.0204 20.1231 98.206 19.7936C98.3906 19.4564 98.5219 19.0618 98.5989 18.6097C98.6838 18.1575 98.7263 17.6671 98.7263 17.1384C98.7263 16.7169 98.6957 16.2878 98.6335 15.851C98.5722 15.4065 98.4567 15.0042 98.2869 14.644C98.1171 14.2839 97.8822 13.9888 97.5811 13.7589C97.28 13.5291 96.887 13.4141 96.4009 13.4141C95.915 13.4141 95.5023 13.4907 95.163 13.644C94.8313 13.7972 94.5614 14.031 94.3532 14.3452C94.1526 14.6593 94.0099 15.054 93.9251 15.5291C93.8402 15.9966 93.7979 16.5445 93.7979 17.1728ZM93.7863 13.6899C93.9791 13.2839 94.2259 12.9275 94.5267 12.621C94.8275 12.3145 95.1592 12.0578 95.5217 11.8508C95.8842 11.6439 96.2621 11.4906 96.6554 11.3911C97.0568 11.2838 97.4537 11.2301 97.8466 11.2301C98.5565 11.2301 99.1972 11.3872 99.7678 11.7014C100.338 12.0156 100.824 12.4447 101.225 12.9888C101.634 13.5252 101.947 14.1612 102.163 14.8969C102.378 15.6249 102.487 16.4066 102.487 17.2418C102.487 18.1077 102.37 18.9008 102.139 19.6212C101.916 20.3415 101.595 20.9622 101.179 21.4833C100.77 21.9968 100.276 22.399 99.6977 22.6902C99.1271 22.9815 98.4913 23.127 97.7894 23.127C96.9255 23.127 96.1541 22.9278 95.4754 22.5293C94.7966 22.1308 94.2336 21.5714 93.7863 20.8511V24.9892C93.7863 25.7171 93.6359 26.2766 93.335 26.6674C93.0419 27.0582 92.5523 27.2536 91.8657 27.2536C91.2179 27.2536 90.7589 27.0582 90.489 26.6674C90.2268 26.2766 90.0957 25.7171 90.0957 24.9892V13.6899C90.0957 12.9619 90.2268 12.4025 90.489 12.0118C90.7589 11.621 91.2179 11.4255 91.8657 11.4255C92.5523 11.4255 93.0419 11.621 93.335 12.0118C93.6359 12.4025 93.7863 12.9619 93.7863 13.6899Z" fill="#D3C9C1"/>
<path d="M106.555 14.507C106.555 14.8058 106.687 15.0395 106.948 15.2081C107.211 15.3691 107.573 15.5032 108.036 15.6105C108.475 15.71 108.927 15.8059 109.39 15.8978C109.853 15.9898 110.304 16.0971 110.743 16.2197C111.182 16.3345 111.595 16.4726 111.981 16.6334C112.366 16.7944 112.706 16.9974 112.999 17.2426C113.292 17.4802 113.523 17.7714 113.693 18.1162C113.863 18.4534 113.948 18.8596 113.948 19.3346C113.948 19.9324 113.824 20.465 113.577 20.9324C113.331 21.3922 112.98 21.783 112.525 22.1049C112.078 22.4267 111.542 22.6758 110.917 22.8521C110.292 23.0283 109.602 23.1202 108.846 23.1279C108.129 23.1279 107.438 23.082 106.774 22.99C106.112 22.9057 105.522 22.7715 105.004 22.5876C104.496 22.4037 104.087 22.1777 103.778 21.9094C103.47 21.6336 103.316 21.3118 103.316 20.944C103.316 20.622 103.42 20.373 103.628 20.1967C103.836 20.0206 104.102 19.9324 104.427 19.9324C104.55 19.9324 104.696 19.9553 104.866 20.0013C105.036 20.0473 105.22 20.1048 105.421 20.1738C105.621 20.2427 105.834 20.3193 106.058 20.4037C106.289 20.4803 106.528 20.5493 106.774 20.6106C107.083 20.6949 107.399 20.7639 107.723 20.8175C108.055 20.8634 108.394 20.8865 108.742 20.8865C108.957 20.8865 109.169 20.8673 109.378 20.829C109.586 20.783 109.772 20.7179 109.934 20.6336C110.103 20.5416 110.242 20.4266 110.35 20.2887C110.458 20.1508 110.523 19.9822 110.547 19.783C110.569 19.737 110.589 19.691 110.604 19.645C110.62 19.5991 110.628 19.5454 110.628 19.4841C110.628 19.2695 110.527 19.0779 110.326 18.9093C110.134 18.7408 109.86 18.6066 109.505 18.5071C108.911 18.3692 108.344 18.2427 107.804 18.1278C107.265 18.0128 106.764 17.8902 106.3 17.7599C105.845 17.6297 105.429 17.4802 105.051 17.3116C104.68 17.1431 104.365 16.9361 104.102 16.6909C103.848 16.4457 103.647 16.1506 103.501 15.8059C103.361 15.461 103.292 15.0433 103.292 14.5529C103.292 14.0242 103.412 13.5529 103.651 13.1391C103.898 12.7176 104.249 12.3651 104.704 12.0816C105.159 11.798 105.71 11.5835 106.359 11.4379C107.006 11.2846 107.739 11.208 108.556 11.208C110.021 11.208 111.136 11.3843 111.9 11.7367C112.671 12.0816 113.057 12.5337 113.057 13.0931C113.057 13.4073 112.953 13.6487 112.744 13.8172C112.536 13.9782 112.285 14.0586 111.993 14.0586C111.838 14.0586 111.676 14.0318 111.506 13.9782C111.344 13.9169 111.148 13.8518 110.917 13.7828C110.685 13.7062 110.407 13.6411 110.084 13.5874C109.768 13.5261 109.374 13.4954 108.904 13.4954C108.548 13.4954 108.225 13.5107 107.931 13.5414C107.646 13.572 107.399 13.6257 107.191 13.7023C106.991 13.779 106.833 13.8824 106.717 14.0127C106.609 14.143 106.555 14.3077 106.555 14.507Z" fill="#D3C9C1"/>
<path d="M118.645 18.7254C118.645 19.0856 118.692 19.3998 118.784 19.6681C118.884 19.9362 119.019 20.1623 119.189 20.3462C119.359 20.5225 119.556 20.6566 119.779 20.7485C120.011 20.8328 120.257 20.875 120.519 20.875C120.828 20.875 121.125 20.829 121.411 20.737C121.696 20.6451 121.947 20.5033 122.163 20.3117C122.386 20.1201 122.564 19.8788 122.695 19.5875C122.825 19.2964 122.891 18.9554 122.891 18.5646V13.6908C122.891 12.9628 123.023 12.4034 123.284 12.0127C123.555 11.6219 124.014 11.4264 124.662 11.4264C125.348 11.4264 125.837 11.6219 126.131 12.0127C126.432 12.4034 126.582 12.9628 126.582 13.6908V20.7255C126.582 21.4535 126.432 22.0129 126.131 22.4037C125.837 22.7946 125.348 22.99 124.662 22.99C124.014 22.99 123.555 22.7946 123.284 22.4037C123.023 22.0129 122.891 21.4535 122.891 20.7255C122.729 21.0781 122.517 21.3999 122.255 21.6911C122 21.9823 121.7 22.2352 121.352 22.4497C121.013 22.6567 120.636 22.8175 120.219 22.9325C119.81 23.0475 119.366 23.1049 118.888 23.1049C118.372 23.1049 117.874 23.0168 117.395 22.8406C116.925 22.6567 116.509 22.3884 116.147 22.0359C115.784 21.6758 115.495 21.2313 115.279 20.7026C115.063 20.1738 114.955 19.5569 114.955 18.8519V13.6908C114.955 12.9628 115.086 12.4034 115.348 12.0127C115.618 11.6219 116.076 11.4264 116.725 11.4264C117.411 11.4264 117.901 11.6219 118.194 12.0127C118.495 12.4034 118.645 12.9628 118.645 13.6908V18.7254Z" fill="#D3C9C1"/>
<path d="M128.256 13.6899C128.256 12.9619 128.387 12.4025 128.65 12.0118C128.919 11.621 129.378 11.4255 130.026 11.4255C130.713 11.4255 131.203 11.621 131.496 12.0118C131.796 12.4025 131.947 12.9619 131.947 13.6899C132.101 13.3221 132.309 12.9888 132.572 12.6899C132.842 12.3834 133.147 12.1229 133.485 11.9083C133.833 11.6938 134.207 11.529 134.608 11.414C135.009 11.2914 135.425 11.2301 135.858 11.2301C136.258 11.2301 136.651 11.2838 137.037 11.3911C137.43 11.4906 137.794 11.6554 138.125 11.8853C138.464 12.1075 138.761 12.3911 139.016 12.7359C139.271 13.0807 139.467 13.4945 139.606 13.9773C139.845 13.4639 140.126 13.031 140.45 12.6785C140.774 12.3259 141.126 12.0424 141.503 11.8278C141.881 11.6132 142.275 11.46 142.683 11.368C143.1 11.2761 143.516 11.2301 143.932 11.2301C144.426 11.2301 144.897 11.3183 145.344 11.4944C145.799 11.6707 146.196 11.939 146.536 12.2992C146.883 12.6516 147.157 13.0999 147.357 13.644C147.565 14.1804 147.669 14.8088 147.669 15.5291V20.7246C147.669 21.4526 147.519 22.012 147.218 22.4028C146.926 22.7937 146.435 22.9891 145.749 22.9891C145.101 22.9891 144.642 22.7937 144.373 22.4028C144.11 22.012 143.979 21.4526 143.979 20.7246V15.69C143.979 15.3452 143.932 15.0386 143.84 14.7705C143.748 14.4945 143.616 14.2647 143.447 14.0808C143.285 13.8892 143.092 13.7474 142.868 13.6555C142.645 13.5558 142.405 13.506 142.151 13.506C141.834 13.506 141.534 13.5558 141.249 13.6555C140.964 13.7551 140.713 13.9084 140.497 14.1152C140.288 14.3222 140.119 14.5865 139.987 14.9084C139.864 15.2302 139.803 15.6172 139.803 16.0693V20.7246C139.803 21.4526 139.652 22.012 139.351 22.4028C139.058 22.7937 138.569 22.9891 137.881 22.9891C137.234 22.9891 136.775 22.7937 136.505 22.4028C136.243 22.012 136.111 21.4526 136.111 20.7246V15.9084C136.111 15.1192 135.945 14.5214 135.615 14.1152C135.29 13.7092 134.847 13.506 134.284 13.506C133.952 13.506 133.643 13.5597 133.358 13.667C133.073 13.7743 132.826 13.9313 132.617 14.1383C132.409 14.3452 132.243 14.6018 132.12 14.9084C132.004 15.2149 131.947 15.5674 131.947 15.9658V20.7246C131.947 21.4526 131.796 22.012 131.496 22.4028C131.203 22.7937 130.713 22.9891 130.026 22.9891C129.378 22.9891 128.919 22.7937 128.65 22.4028C128.387 22.012 128.256 21.4526 128.256 20.7246V13.6899Z" fill="#D3C9C1"/>
<path d="M14.9181 21.0277C11.6467 21.0277 8.99463 18.3927 8.99463 15.1424C8.99463 11.8921 11.6467 9.2572 14.9181 9.2572C18.1895 9.2572 20.8415 11.8921 20.8415 15.1424C20.8415 18.3927 18.1895 21.0277 14.9181 21.0277Z" fill="#D3C9C1"/>
<path d="M3.44524 17.1531C1.72867 17.4538 0.552055 19.1013 1.21099 20.7046C2.13094 22.943 3.59861 24.9373 5.50133 26.4957C8.22208 28.7239 11.6537 29.9146 15.1792 29.8535C18.7046 29.7924 22.0924 28.4834 24.7333 26.1621C26.5801 24.5387 27.9768 22.4947 28.8176 20.2258C29.4199 18.6006 28.186 16.9949 26.4599 16.7539C24.7339 16.5129 23.1841 17.7612 22.3316 19.2717C21.8694 20.0905 21.2695 20.8333 20.5508 21.4651C19.0355 22.797 17.0918 23.548 15.0691 23.5831C13.0463 23.6181 11.0774 22.935 9.51636 21.6564C8.77583 21.05 8.15021 20.3284 7.65957 19.5262C6.75447 18.0461 5.16181 16.8523 3.44524 17.1531Z" fill="#727272"/>
<path d="M29.6127 16.981C29.6883 16.3786 29.7272 15.765 29.7272 15.1423C29.7272 7.01648 23.0972 0.429199 14.9186 0.429199C6.74003 0.429199 0.109985 7.01648 0.109985 15.1423C0.109985 15.9414 0.174107 16.7256 0.297522 17.4902C0.977712 16.5651 2.03931 15.9046 3.18599 15.7038C4.42665 15.4864 5.55421 15.7854 6.50758 16.3442C6.45126 15.9516 6.42211 15.5503 6.42211 15.1423C6.42211 10.4801 10.2262 6.70061 14.9186 6.70061C19.6111 6.70061 23.4151 10.4801 23.4151 15.1423C23.4151 15.4497 23.3985 15.7533 23.3663 16.0522C24.2996 15.4604 25.4162 15.1223 26.6639 15.2966C27.8166 15.4576 28.9004 16.0804 29.6127 16.981Z" fill="#D3C9C1"/>
</svg>
