<svg width="153" height="35" viewBox="0 0 153 35" fill="none" xmlns="http://www.w3.org/2000/svg">
<path d="M15.9759 4.99009V0H0.242432V34.2848H15.9759V29.2948C12.7529 29.2948 9.66184 28.0144 7.38288 25.7354C5.10388 23.4564 3.82355 20.3654 3.82355 17.1424C3.82355 13.9194 5.10388 10.8284 7.38288 8.54943C9.66184 6.27043 12.7529 4.99009 15.9759 4.99009Z" fill="#D3C9C1"/>
<path d="M15.9753 4.99097V29.2956C19.1984 29.2956 22.2894 28.0152 24.5684 25.7362C26.8474 23.4572 28.1277 20.3663 28.1277 17.1433C28.1277 13.9203 26.8474 10.8293 24.5684 8.55031C22.2894 6.27131 19.1984 4.99097 15.9753 4.99097Z" fill="#D3C9C1"/>
<path d="M36.9581 8.04382H40.4805V25.0101H36.9581V8.04382Z" fill="#D3C9C1"/>
<path d="M42.4529 19.1979C42.4529 17.9773 42.8154 16.7841 43.4943 15.7697C44.1732 14.7552 45.138 13.9651 46.2664 13.4996C47.3949 13.0342 48.6361 12.9142 49.8328 13.1549C51.0294 13.3956 52.1277 13.9861 52.9884 14.8517C53.849 15.7174 54.4334 16.819 54.6673 18.0171C54.901 19.2152 54.774 20.4556 54.302 21.5814C53.83 22.7071 53.0345 23.6674 52.0162 24.3404C50.9979 25.0135 49.8026 25.3691 48.5819 25.3621C47.7724 25.3685 46.9696 25.2131 46.2209 24.905C45.4721 24.5971 44.7923 24.1427 44.2214 23.5686C43.6506 22.9945 43.2002 22.3121 42.8964 21.5616C42.5928 20.8111 42.442 20.0075 42.4529 19.1979ZM51.2825 19.1979C51.2686 18.6717 51.0999 18.1611 50.7974 17.7304C50.495 17.2994 50.0723 16.9673 49.582 16.7754C49.0918 16.5836 48.5559 16.5405 48.0414 16.6517C47.5268 16.7627 47.0564 17.0231 46.689 17.4002C46.3216 17.7772 46.0735 18.2541 45.9758 18.7715C45.8781 19.2888 45.9351 19.8234 46.1396 20.3084C46.3442 20.7934 46.6871 21.2076 47.1258 21.4986C47.5643 21.7898 48.0789 21.9452 48.6054 21.9454C48.9639 21.9524 49.3199 21.8854 49.6512 21.7485C49.9826 21.6117 50.2821 21.408 50.5311 21.1501C50.7802 20.8923 50.9733 20.5857 51.0986 20.2499C51.2239 19.914 51.2785 19.5559 51.259 19.1979H51.2825Z" fill="#D3C9C1"/>
<path d="M68.6461 13.386V24.4346C68.6461 28.3328 65.5933 29.9883 62.5054 29.9883C61.4161 30.0776 60.3236 29.8613 59.3508 29.3634C58.3779 28.8656 57.5633 28.106 56.9987 27.1704L59.9692 25.4561C60.2099 25.9415 60.5928 26.3419 61.0669 26.6041C61.541 26.8663 62.0837 26.9778 62.6228 26.9238C62.9662 26.9661 63.3147 26.932 63.6433 26.824C63.9721 26.7159 64.2728 26.5366 64.5241 26.2987C64.7754 26.0608 64.971 25.7704 65.097 25.4481C65.223 25.126 65.2762 24.7798 65.2528 24.4346V23.3662C64.8429 23.8632 64.3228 24.2577 63.7339 24.5186C63.1448 24.7795 62.5031 24.8995 61.8596 24.869C60.3026 24.869 58.8094 24.2505 57.7084 23.1495C56.6074 22.0487 55.9889 20.5554 55.9889 18.9984C55.9889 17.4413 56.6074 15.9482 57.7084 14.8472C58.8094 13.7462 60.3026 13.1277 61.8596 13.1277C62.5031 13.0973 63.1448 13.2173 63.7339 13.4781C64.3228 13.739 64.8429 14.1336 65.2528 14.6306V13.4564L68.6461 13.386ZM65.2528 18.9631C65.2762 18.4014 65.1311 17.8455 64.836 17.3669C64.541 16.8883 64.1096 16.509 63.5971 16.2775C63.0847 16.0461 62.5149 15.9733 61.9607 16.0684C61.4066 16.1635 60.8935 16.4222 60.4876 16.8112C60.0817 17.2002 59.8014 17.7018 59.6829 18.2514C59.5643 18.801 59.6128 19.3734 59.8221 19.8952C60.0316 20.417 60.3923 20.8642 60.8578 21.1793C61.3235 21.4945 61.8727 21.6632 62.4349 21.6637C62.8018 21.6901 63.1702 21.6392 63.5161 21.5145C63.8621 21.3897 64.1782 21.1938 64.4436 20.9392C64.7092 20.6848 64.9184 20.3774 65.0578 20.037C65.1972 19.6966 65.2636 19.3308 65.2528 18.9631Z" fill="#D3C9C1"/>
<path d="M70.6341 19.1981C70.6341 17.9784 70.9959 16.7861 71.6738 15.7722C72.3516 14.7582 73.315 13.9681 74.442 13.502C75.5691 13.0357 76.8091 12.9143 78.0052 13.1531C79.2013 13.3919 80.2996 13.9802 81.1613 14.8434C82.0229 15.7068 82.609 16.8062 82.8455 18.0027C83.0821 19.1992 82.9583 20.439 82.4899 21.5651C82.0216 22.6914 81.2296 23.6532 80.2145 24.3292C79.1992 25.0051 78.0063 25.3646 76.7866 25.3623C75.9755 25.3702 75.1708 25.216 74.4201 24.9088C73.6693 24.6017 72.9874 24.1478 72.4144 23.5736C71.8413 22.9995 71.3887 22.3167 71.083 21.5654C70.7773 20.814 70.6247 20.0092 70.6341 19.1981ZM79.4636 19.1981C79.4497 18.6713 79.2807 18.1604 78.9777 17.7292C78.6748 17.2982 78.2513 16.966 77.7604 16.7745C77.2695 16.583 76.733 16.5406 76.2182 16.6528C75.7033 16.7648 75.2329 17.0264 74.866 17.4046C74.4991 17.7828 74.2519 18.2609 74.1557 18.7789C74.0593 19.2969 74.1179 19.8319 74.3242 20.3167C74.5305 20.8016 74.8753 21.2148 75.3155 21.5045C75.7555 21.7942 76.2713 21.9477 76.7983 21.9455C77.1568 21.9526 77.5128 21.8855 77.8441 21.7486C78.1754 21.6119 78.475 21.4081 78.724 21.1503C78.973 20.8925 79.1662 20.5859 79.2915 20.2501C79.4167 19.9142 79.4713 19.5561 79.4519 19.1981H79.4636Z" fill="#D3C9C1"/>
<path d="M84.5686 10.2744C84.5686 9.86112 84.6912 9.45698 84.9208 9.11331C85.1505 8.76959 85.4769 8.50173 85.8587 8.34354C86.2407 8.18536 86.6609 8.14397 87.0663 8.22461C87.4717 8.30525 87.8441 8.5043 88.1365 8.79659C88.4287 9.08889 88.6277 9.46133 88.7084 9.86664C88.789 10.2721 88.7476 10.6923 88.5894 11.0742C88.4313 11.4561 88.1633 11.7825 87.8197 12.0121C87.476 12.2418 87.072 12.3644 86.6586 12.3644C86.1061 12.3583 85.5781 12.1361 85.1875 11.7455C84.7969 11.3549 84.5747 10.8268 84.5686 10.2744ZM84.9091 13.3859H88.4315V25.0099H84.9091V13.3859Z" fill="#D3C9C1"/>
<path d="M103.509 19.1979C103.548 19.971 103.434 20.7443 103.174 21.4732C102.913 22.2021 102.511 22.8723 101.991 23.4451C101.47 24.0181 100.842 24.4824 100.141 24.8114C99.4402 25.1404 98.6814 25.3275 97.9081 25.3622C97.2519 25.4058 96.5942 25.3007 95.9844 25.0548C95.3744 24.8087 94.828 24.4281 94.3857 23.9414V29.683H90.8633V13.3859H94.3857V14.4779C94.8286 13.9926 95.3755 13.6138 95.9855 13.3699C96.5954 13.1258 97.2527 13.0229 97.9081 13.0689C98.6783 13.1036 99.4341 13.2897 100.132 13.6164C100.831 13.9432 101.458 14.4044 101.978 14.9735C102.498 15.5426 102.901 16.2086 103.163 16.9335C103.426 17.6583 103.543 18.4277 103.509 19.1979ZM99.9863 19.1979C99.9725 18.6525 99.7979 18.1235 99.4846 17.6769C99.1714 17.2304 98.7332 16.8862 98.2251 16.6876C97.7171 16.489 97.1617 16.4448 96.6285 16.5605C96.0955 16.6761 95.6084 16.9466 95.2284 17.338C94.8483 17.7293 94.5922 18.2241 94.4923 18.7604C94.3923 19.2967 94.4527 19.8505 94.6662 20.3526C94.8797 20.8545 95.2365 21.2824 95.692 21.5825C96.1476 21.8826 96.6816 22.0415 97.2271 22.0393C97.6007 22.0552 97.9735 21.9919 98.3209 21.8536C98.6685 21.7153 98.9828 21.5051 99.2433 21.2368C99.5039 20.9685 99.7047 20.6481 99.8328 20.2968C99.9609 19.9454 100.013 19.571 99.9863 19.1979Z" fill="#D3C9C1"/>
<path d="M114.229 21.522C114.229 24.1991 111.881 25.338 109.391 25.338C108.376 25.4293 107.357 25.2141 106.465 24.7201C105.574 24.2262 104.851 23.4761 104.39 22.567L107.419 20.8528C107.539 21.2717 107.799 21.6367 108.156 21.8868C108.513 22.1369 108.945 22.2568 109.38 22.2265C110.213 22.2265 110.636 21.9682 110.636 21.4985C110.636 20.2187 104.918 20.8997 104.918 16.8724C104.918 14.3363 107.055 13.0682 109.474 13.0682C110.393 13.027 111.306 13.2357 112.117 13.6718C112.927 14.108 113.604 14.7556 114.076 15.5457L111.047 17.1425C110.913 16.8396 110.695 16.5819 110.417 16.4007C110.14 16.2194 109.817 16.1223 109.485 16.121C108.875 16.121 108.511 16.3558 108.511 16.7668C108.511 18.1053 114.229 17.2247 114.229 21.522Z" fill="#D3C9C1"/>
<path d="M126.99 13.3855V25.0095H123.467V23.9175C123.067 24.4009 122.558 24.7833 121.984 25.0342C121.409 25.2852 120.783 25.3973 120.156 25.3617C117.808 25.3617 115.8 23.6827 115.8 20.5477V13.3855H119.322V20.0194C119.294 20.2967 119.327 20.5767 119.419 20.8402C119.51 21.1036 119.657 21.344 119.85 21.5451C120.043 21.7459 120.278 21.9026 120.538 22.0041C120.797 22.1056 121.075 22.1495 121.354 22.1328C122.622 22.1328 123.514 21.3814 123.514 19.7846V13.3855H126.99Z" fill="#D3C9C1"/>
<path d="M146.952 17.8712V25.0099H143.43V18.1765C143.43 17.0023 142.878 16.2744 141.762 16.2744C140.647 16.2744 139.942 17.0845 139.942 18.4583V25.0099H136.42V18.1765C136.42 17.0023 135.868 16.2744 134.753 16.2744C133.637 16.2744 132.933 17.0845 132.933 18.4583V25.0099H129.41V13.386H132.933V14.4544C133.298 13.9824 133.773 13.6086 134.319 13.3667C134.864 13.1248 135.462 13.0225 136.056 13.069C136.651 13.0378 137.245 13.1623 137.778 13.4299C138.312 13.6975 138.766 14.0991 139.097 14.5953C139.485 14.0768 139.996 13.6649 140.586 13.3981C141.174 13.1311 141.822 13.0179 142.467 13.069C145.214 13.069 146.952 14.9711 146.952 17.8712Z" fill="#D3C9C1"/>
<path d="M149.909 13.3155C151.336 13.3155 152.492 12.159 152.492 10.7324C152.492 9.30582 151.336 8.14929 149.909 8.14929C148.483 8.14929 147.326 9.30582 147.326 10.7324C147.326 12.159 148.483 13.3155 149.909 13.3155Z" fill="#D3C9C1"/>
</svg>
