<svg width="125" height="30" viewBox="0 0 125 30" fill="none" xmlns="http://www.w3.org/2000/svg">
<g clip-path="url(#clip0_39_154)">
<path d="M38.0925 20.5272H46.8566V17.9891H41.2075V8.42908H38.0925V20.5272Z" fill="#D3C9C1"/>
<path d="M52.0499 18.8353C50.8004 18.8353 50.1492 17.7863 50.1492 16.2126C50.1492 14.639 50.8004 13.5731 52.0499 13.5731C53.2994 13.5731 53.9681 14.639 53.9681 16.2126C53.9681 17.7863 53.2994 18.8353 52.0499 18.8353ZM52.0675 20.7981C54.9712 20.7981 56.8719 18.8184 56.8719 16.2126C56.8719 13.6069 54.9712 11.6272 52.0675 11.6272C49.1813 11.6272 47.2455 13.6069 47.2455 16.2126C47.2455 18.8184 49.1813 20.7981 52.0675 20.7981Z" fill="#D3C9C1"/>
<path d="M61.8968 23.5224C63.2343 23.5224 64.4134 23.2347 65.2053 22.5579C65.9269 21.9318 66.402 20.9843 66.402 19.6814V11.8642H63.6567V12.7948H63.6215C63.0935 12.0672 62.284 11.6104 61.0873 11.6104C58.8523 11.6104 57.3036 13.4039 57.3036 15.942C57.3036 18.5985 59.1866 20.0537 61.2105 20.0537C62.3016 20.0537 62.9879 19.6307 63.5159 19.0554H63.5863V19.9183C63.5863 20.9674 63.0759 21.5765 61.8616 21.5765C60.9113 21.5765 60.4361 21.1873 60.2777 20.7305H57.4972C57.7787 22.541 59.4154 23.5224 61.8968 23.5224ZM61.8792 18.0063C60.8057 18.0063 60.1018 17.1603 60.1018 15.8574C60.1018 14.5376 60.8057 13.6916 61.8792 13.6916C63.0759 13.6916 63.7095 14.673 63.7095 15.8405C63.7095 17.0587 63.1287 18.0063 61.8792 18.0063Z" fill="#D3C9C1"/>
<path d="M72.0487 18.8353C70.7992 18.8353 70.148 17.7863 70.148 16.2126C70.148 14.639 70.7992 13.5731 72.0487 13.5731C73.2982 13.5731 73.9669 14.639 73.9669 16.2126C73.9669 17.7863 73.2982 18.8353 72.0487 18.8353ZM72.0663 20.7981C74.97 20.7981 76.8707 18.8184 76.8707 16.2126C76.8707 13.6069 74.97 11.6272 72.0663 11.6272C69.1801 11.6272 67.2443 13.6069 67.2443 16.2126C67.2443 18.8184 69.1801 20.7981 72.0663 20.7981Z" fill="#D3C9C1"/>
<path d="M77.7067 20.5272H80.5752V11.8639H77.7067V20.5272ZM77.7067 10.6626H80.5752V8.42908H77.7067V10.6626Z" fill="#D3C9C1"/>
<path d="M81.8219 23.387H84.6905V19.6307H84.7257C85.2888 20.3582 86.1159 20.7982 87.2774 20.7982C89.6356 20.7982 91.2019 19.0046 91.2019 16.1958C91.2019 13.59 89.7412 11.6104 87.3478 11.6104C86.1159 11.6104 85.236 12.1349 84.6201 12.9132H84.5673V11.8642H81.8219V23.387ZM86.5383 18.6662C85.3064 18.6662 84.6025 17.7017 84.6025 16.2973C84.6025 14.8929 85.236 13.8269 86.4855 13.8269C87.7174 13.8269 88.2982 14.8083 88.2982 16.2973C88.2982 17.7694 87.6294 18.6662 86.5383 18.6662Z" fill="#D3C9C1"/>
<path d="M95.8724 20.7982C98.2306 20.7982 99.9728 19.8168 99.9728 17.9217C99.9728 15.7051 98.1074 15.3159 96.5235 15.0621C95.3796 14.8591 94.3589 14.7745 94.3589 14.1653C94.3589 13.6239 94.9045 13.3701 95.6084 13.3701C96.4003 13.3701 96.9459 13.607 97.0515 14.3853H99.6913C99.5505 12.6763 98.1778 11.6104 95.626 11.6104C93.4966 11.6104 91.7367 12.5579 91.7367 14.3853C91.7367 16.4158 93.4086 16.8219 94.9749 17.0757C96.1716 17.2787 97.2627 17.3633 97.2627 18.1417C97.2627 18.7 96.7171 19.0046 95.8548 19.0046C94.9045 19.0046 94.3061 18.5816 94.2005 17.7186H91.4904C91.5783 19.6307 93.2326 20.7982 95.8724 20.7982Z" fill="#D3C9C1"/>
<path d="M103.87 20.7811C105.119 20.7811 105.911 20.3073 106.562 19.4613H106.615V20.5273H109.36V11.864H106.492V16.7033C106.492 17.7354 105.893 18.4461 104.908 18.4461C103.993 18.4461 103.553 17.9215 103.553 16.974V11.864H100.702V17.5493C100.702 19.4782 101.793 20.7811 103.87 20.7811Z" fill="#D3C9C1"/>
<path d="M110.608 20.5272H113.476V15.671C113.476 14.6389 114.004 13.9113 114.902 13.9113C115.764 13.9113 116.169 14.4527 116.169 15.3834V20.5272H119.037V15.671C119.037 14.6389 119.548 13.9113 120.463 13.9113C121.325 13.9113 121.73 14.4527 121.73 15.3834V20.5272H124.599V14.8927C124.599 12.9468 123.578 11.6101 121.536 11.6101C120.375 11.6101 119.407 12.0839 118.703 13.133H118.668C118.21 12.2023 117.313 11.6101 116.134 11.6101C114.831 11.6101 113.969 12.2023 113.406 13.0991H113.353V11.8639H110.608V20.5272Z" fill="#D3C9C1"/>
<path fill-rule="evenodd" clip-rule="evenodd" d="M15.2322 28.9876C23.3318 28.9876 29.8977 22.6747 29.8977 14.8872C29.8977 7.09983 23.3318 0.786865 15.2322 0.786865C7.13271 0.786865 0.566772 7.09983 0.566772 14.8872C0.566772 22.6747 7.13271 28.9876 15.2322 28.9876ZM19.8074 7.35542C20.03 6.59486 19.2624 6.14511 18.5613 6.62535L8.77438 13.3289C8.01405 13.8497 8.13365 14.8872 8.95403 14.8872H11.5312V14.8681H16.554L12.4614 16.2565L10.6571 22.4191C10.4344 23.1797 11.202 23.6294 11.9032 23.1492L21.6901 16.4457C22.4504 15.9249 22.3308 14.8872 21.5104 14.8872H17.6023L19.8074 7.35542Z" fill="#D3C9C1"/>
</g>
<defs>
<clipPath id="clip0_39_154">
<rect width="124.656" height="28.9058" fill="white" transform="translate(0.065918 0.689453)"/>
</clipPath>
</defs>
</svg>
